<svg xmlns="http://www.w3.org/2000/svg" xmlns:xlink="http://www.w3.org/1999/xlink" viewBox="0 0 1200 1200"><defs><style>.cls-1,.cls-4,.cls-5,.cls-6{fill:none;}.cls-2{fill:#949494;}.cls-3{fill:url(#New_Pattern);}.cls-4,.cls-5,.cls-6,.cls-7{stroke:#000;}.cls-4,.cls-5,.cls-7{stroke-linecap:round;stroke-width:2.5px;}.cls-4{stroke-miterlimit:10;}.cls-5,.cls-6,.cls-7{stroke-linejoin:round;}.cls-6{stroke-linecap:square;stroke-width:7px;}</style><pattern id="New_Pattern" data-name="New Pattern" width="12" height="12" patternUnits="userSpaceOnUse" viewBox="0 0 12 12"><rect class="cls-1" width="12" height="12"/><circle class="cls-2" cx="12" cy="9" r="2"/><circle class="cls-2" cx="6" cy="12" r="2"/><circle class="cls-2" cy="9" r="2"/><circle class="cls-2" cx="12" cy="3" r="2"/><circle class="cls-2" cx="6" cy="6" r="2"/><circle class="cls-2" cy="3" r="2"/><circle class="cls-2" cx="6" r="2"/></pattern></defs><title>Artboard 1</title><g id="Shadow"><path class="cls-3" d="M428.81,397c0,15-46.29,117.44-145.55,130.22-1.26,5.78-2.29,21-2.29,21l-.47,13.49L289,568l82,23,67,7,31-14,7-12,4.75-11.79L493,529l5-11.91c2-5.09,5-13.09,5-13.09l5-17-10-16-10-18-9-16-3-9-10,3-10,1h-7l-5-3-6-9-6-14Z"/><polygon class="cls-3" points="539 334 546 341 554 352 557 361 549 365 543 356 538 349 539 345 538 333 539 334"/><polygon class="cls-3" points="537 392 544 403 553 419 558 433 584 424 578 414 566 397 549 379 537 392"/><path class="cls-3" d="M632,510c0-4,47-24,89-24-17-3-40-6-40-6l-35-4-24-2-18,7-21,8-23,8,4,6,8,8Z"/></g><g id="Vector"><path d="M469.5,37.5c-22.5,0-40.5,21-60,21-33.5,0-57.5-35-108-35-22.5,0-50,34-55,39-12,12-72,15.5-72,84,0,11,8.5,84,75,84,45.5,0,90.5-55,131-55,19.5,0,18.5,7,52,7C435,176,439,168,439,160c0-10-11-12-11-25,0-25,62-18,62-67,3,0,6,8,6,12,2,0,5-6,5-11C501,59,492,37.5,469.5,37.5Z"/><path class="cls-4" d="M487.5,62.5c11,10,14,41,14,60,0,47-22,60-31,60s-9.5-2.5-12-5"/><path class="cls-4" d="M475.09,181.62c0,6.88-2.59,15.88-2.59,26.88,0,11.76,64.38,68.69,66.92,142.51"/><path class="cls-4" d="M435.5,166.5c0,79-155,249-155,396"/><path class="cls-4" d="M457.5,223.5c-14,0-29.87-9.74-29.87-19.87"/><path class="cls-4" d="M412.5,305.5c0,55,24.57,123.17,34,126,30,9,103-44,105-59,1.51-11.3-49-64-53-67"/><path class="cls-4" d="M537.48,332.4c4,3.1,19,20.1,20,28.1-3,2-8.28,4.84-8.28,4.84"/><path class="cls-5" d="M475.74,428c1.76,5.48,31.09,70.28,50.76,73.48,43,7,216-87,248-95,11.06-2.77,26-7,30-9s16-12,14-26c-.71-4.95-8-3-12-3-3-2-5-6-9-6s-21,15-31,18-198,45-209,52c-2-9-10-27-21.51-41"/><line class="cls-6" x1="808.02" y1="398.99" x2="815.45" y2="423.65"/><line class="cls-6" x1="791.81" y1="345.2" x2="796.37" y2="360.33"/><path class="cls-5" d="M548.86,378.07c3.64,4.43,27.34,30.83,35.49,46.13"/><path class="cls-5" d="M618.84,475.21c68.66,0,165.66,23.29,172.66,23.29s20-9,26-9,32,11,32,19c-8,5-270,4-276,2s-13.88-13.62-13.88-13.62"/><path class="cls-5" d="M508.06,486.37c0,6.13-37.56,109.13-48.56,109.13"/><path class="cls-7" d="M280.5,559.5c13,11,128,47,189,25,82-19,317-22,340,6,11.44,13.93-6,112-17,139,20,12,47.62,28.37,44,46-15,73-221,268-259,292-8-4-23-13-23-17s117-232,124-237c-34-3-310-44-367-101C288,689,280.5,647.5,280.5,559.5Z"/><path class="cls-7" d="M813.24,611.26C813.24,727.5,698,1042,692.5,1047.5c-6,1-22.5,1.5-25-1v-62"/><polygon class="cls-7" points="667.5 1066.5 667.5 1093.5 762.5 1093.5 762.5 1084.5 690.5 1066.5 667.5 1066.5"/><polygon class="cls-7" points="545.21 1067.08 530.69 1089.85 610.79 1140.92 615.63 1133.33 564.6 1079.44 545.21 1067.08"/><rect class="cls-5" x="548.76" y="1055.98" width="23.08" height="19" transform="translate(674.29 -132.93) rotate(33.17)"/><rect class="cls-5" x="667.76" y="1046.98" width="21.74" height="19"/><polyline class="cls-5" points="282.81 311.5 111.5 311.5 312.5 769.5 464.5 769.5"/><line class="cls-5" x1="282.81" y1="311.5" x2="323.91" y2="405.15"/><line class="cls-5" x1="361.3" y1="769.5" x2="277.5" y2="1080.5"/><line class="cls-5" x1="506.3" y1="769.5" x2="422.5" y2="1080.5"/><line class="cls-5" x1="541.5" y1="769.5" x2="625.3" y2="1080.5"/><rect x="508.5" y="508.5" width="530" height="21"/><line class="cls-5" x1="1011" y1="1053" x2="1011" y2="525"/><line class="cls-5" x1="595.5" y1="1053.5" x2="595.5" y2="525.5"/><line class="cls-5" x1="949.5" y1="984.5" x2="949.5" y2="525.5"/><line class="cls-5" x1="537.5" y1="984.5" x2="537.5" y2="525.5"/><circle class="cls-2" cx="1031" cy="201" r="2"/></g></svg>